<?xml version="1.0" encoding="utf-8" ?>
<svg baseProfile="full" height="363" version="1.1" width="451" xmlns="http://www.w3.org/2000/svg" xmlns:ev="http://www.w3.org/2001/xml-events" xmlns:xlink="http://www.w3.org/1999/xlink"><defs /><polygon fill="#F2B705" points="174,175 182,192 190,192 195,197 207,199 214,208 214,199 210,188 201,178 192,173 177,173" /><polygon fill="#F2B705" points="261,155 254,160 254,174 259,173 263,167 264,159" /><polygon fill="#F2B705" points="161,79 158,84 160,96 151,102 151,106 166,119 166,122 156,124 155,130 158,134 175,143 172,148 173,153 199,161 225,187 232,203 235,218 234,230 232,231 212,216 190,210 177,203 168,194 157,174 156,150 147,147 144,133 142,132 138,136 128,126 123,130 111,130 110,136 114,142 111,152 124,159 120,165 123,169 136,170 140,174 154,178 159,183 167,201 176,211 168,213 162,210 145,188 142,187 136,192 126,181 120,180 116,187 109,184 100,185 99,191 89,197 89,201 98,208 97,214 99,216 112,215 112,223 116,225 131,218 137,225 143,223 152,216 147,208 169,217 198,219 201,224 193,229 168,227 164,233 153,234 145,250 159,257 165,255 170,250 179,252 186,240 200,230 211,229 222,236 229,255 228,284 222,302 211,308 177,311 165,315 317,315 306,311 267,307 259,300 253,273 254,250 257,243 268,231 278,229 292,235 304,252 312,250 319,256 336,252 337,248 332,242 331,235 319,233 315,227 290,229 283,224 287,220 311,218 331,211 330,216 341,224 347,224 349,219 352,218 366,225 370,223 369,217 371,215 383,216 385,214 385,207 393,201 393,197 384,192 380,184 367,188 364,181 360,180 355,182 346,192 343,188 338,187 326,205 315,213 303,213 300,211 315,198 315,192 308,191 302,195 297,207 292,212 270,219 255,229 252,228 251,224 258,209 268,199 279,193 305,185 324,163 326,165 322,173 330,176 340,175 343,168 359,169 361,164 358,159 370,154 372,151 369,145 372,131 370,129 359,130 355,125 346,131 340,128 336,129 329,146 321,145 318,149 311,173 306,179 295,184 287,182 297,171 299,165 299,158 292,156 285,166 284,183 279,187 274,187 276,159 279,151 285,145 297,142 302,133 321,130 323,124 316,119 316,116 327,110 331,105 331,102 323,95 324,82 322,79 317,78 311,83 304,80 299,81 295,95 289,92 285,93 283,100 285,113 278,118 278,130 280,133 292,124 294,125 275,151 271,175 267,185 259,196 247,206 245,204 246,152 253,141 264,132 268,125 266,121 259,120 257,116 271,102 274,95 272,88 260,88 265,67 263,65 253,66 247,53 244,50 240,50 235,54 230,66 221,64 218,68 223,88 221,90 216,88 209,90 211,101 225,116 223,120 217,121 215,126 233,145 236,146 238,142 239,124 243,120 242,156 238,187 236,189 232,187 221,173 221,168 225,161 224,151 219,153 217,165 213,166 194,149 189,141 188,134 200,144 206,124 206,119 198,115 198,94 194,92 187,95 185,85 181,80 171,83 166,79" /></svg>